<svg xmlns="http://www.w3.org/2000/svg" width="960" height="540" viewBox="0 0 960 540" role="img" aria-label="Daily blooms banner">
  <defs>
    <linearGradient id="bg" x1="0" y1="0" x2="1" y2="1">
      <stop offset="0" stop-color="#f8d7df"/>
      <stop offset=".62" stop-color="#fff4d8"/>
      <stop offset="1" stop-color="#d9f0df"/>
    </linearGradient>
  </defs>
  <rect width="960" height="540" fill="url(#bg)"/>
  <circle cx="780" cy="120" r="150" fill="#ffffff" opacity=".38"/>
  <circle cx="168" cy="430" r="190" fill="#e9a7b8" opacity=".26"/>
  <g transform="translate(520 120)">
    <path d="M112 292 C78 218 62 154 72 76" fill="none" stroke="#446b4d" stroke-width="16" stroke-linecap="round"/>
    <path d="M146 292 C132 210 144 140 190 70" fill="none" stroke="#446b4d" stroke-width="14" stroke-linecap="round"/>
    <path d="M70 292 C84 230 82 162 42 92" fill="none" stroke="#446b4d" stroke-width="13" stroke-linecap="round"/>
    <g fill="#f08aa7">
      <circle cx="74" cy="62" r="34"/>
      <circle cx="46" cy="88" r="28"/>
      <circle cx="96" cy="96" r="30"/>
      <circle cx="80" cy="88" r="22" fill="#f6c1cd"/>
    </g>
    <g fill="#f6d365">
      <circle cx="202" cy="56" r="32"/>
      <circle cx="172" cy="80" r="27"/>
      <circle cx="218" cy="92" r="29"/>
      <circle cx="198" cy="82" r="19" fill="#fff4b8"/>
    </g>
    <g fill="#d889c8">
      <circle cx="34" cy="78" r="26"/>
      <circle cx="14" cy="104" r="24"/>
      <circle cx="56" cy="112" r="26"/>
      <circle cx="38" cy="102" r="17" fill="#efc1e6"/>
    </g>
    <path d="M30 288 H180 L158 374 H52 Z" fill="#ffffff" opacity=".95"/>
    <path d="M48 306 H162" stroke="#e5b6bf" stroke-width="8" stroke-linecap="round"/>
  </g>
</svg>
