<svg xmlns="http://www.w3.org/2000/svg" width="420" height="320" viewBox="0 0 420 320" role="img" aria-label="Tulip basket">
  <rect width="420" height="320" rx="28" fill="#fff4d8"/>
  <path d="M140 232 C150 176 146 126 116 74" fill="none" stroke="#5e8a5f" stroke-width="10" stroke-linecap="round"/>
  <path d="M210 232 C204 170 214 118 252 66" fill="none" stroke="#5e8a5f" stroke-width="10" stroke-linecap="round"/>
  <path d="M278 232 C270 174 286 130 326 90" fill="none" stroke="#5e8a5f" stroke-width="10" stroke-linecap="round"/>
  <path d="M86 82 C96 36 142 40 150 84 C132 116 104 116 86 82 Z" fill="#f08aa7"/>
  <path d="M224 72 C234 24 282 30 288 78 C266 108 240 106 224 72 Z" fill="#f6c453"/>
  <path d="M300 94 C310 48 356 54 360 100 C336 130 314 126 300 94 Z" fill="#d889c8"/>
  <path d="M92 212 H328 L302 292 H118 Z" fill="#c9965f"/>
  <path d="M110 230 H310 M104 252 H316 M126 212 L148 292 M178 212 L190 292 M234 212 L224 292 M286 212 L268 292" stroke="#8f6239" stroke-width="7" stroke-linecap="round"/>
</svg>
